<!-- <svg xmlns="http://www.w3.org/2000/svg" viewBox="0 0 261.76 226.69"><path d="M161.096.001l-30.225 52.351L100.647.001H-.005l130.877 226.688L261.749.001z" fill="#41b883"/><path d="M161.096.001l-30.225 52.351L100.647.001H52.346l78.526 136.01L209.398.001z" fill="#34495e"/></svg> -->
<svg xmlns="http://www.w3.org/2000/svg" width="480" height="150"  xmlns:v="https://vecta.io/nano"><g fill-rule="evenodd"><g fill="#1488a9"><path d="M90.314 17.236l37.372 21.656A16.7 16.7 0 0 1 136 53.344v43.312a16.7 16.7 0 0 1-8.314 14.453l-37.372 21.656c-5.145 2.981-11.483 2.981-16.628 0l-37.372-21.656A16.7 16.7 0 0 1 28 96.656V53.344a16.7 16.7 0 0 1 8.314-14.453l37.372-21.656c5.145-2.981 11.483-2.981 16.628 0z" fill-opacity=".4"/><path d="M89.082 24.938l31.836 18.768C125.3 46.29 128 51.064 128 56.232v37.537c0 5.167-2.7 9.942-7.082 12.526l-31.836 18.768a13.91 13.91 0 0 1-14.164 0l-31.836-18.768C38.7 103.71 36 98.936 36 93.768V56.232c0-5.167 2.7-9.942 7.082-12.526l31.836-18.768a13.91 13.91 0 0 1 14.164 0z"/></g><path d="M64.186 58.772c-10.219 7.024-13.474 20.843-7.168 31.765 6.293 10.9 19.844 14.996 31.024 9.708 1.761-.923 1.261-1.789.782-2.619L66.802 59.484c-.5-.866-1-1.732-2.616-.712zm26.701-14.701l23.011 39.857a.8.8 0 0 1-.916 1.168L82.714 76.32a1.2 1.2 0 0 1-.831-1.439l7.534-30.601a.8.8 0 0 1 1.47-.209z" fill="#f7f3f0"/><path d="M178.295 72.531c7.576 0 12.253-4.469 13.57-14.656h-7.246c-.79 5.521-2.569 8.018-6.324 8.018-4.479 0-6.653-4.075-6.653-13.736v-5.784c0-9.793 2.174-13.736 6.653-13.736 3.623 0 5.599 2.497 6.324 8.018h7.246C190.613 30.798 185.607 26 178.295 26 169.863 26 164 32.112 164 46.374v5.784c0 14.262 5.863 20.374 14.295 20.374zm23.99-.591l2.306-9.398h12.187l2.371 9.398h8.102l-12.78-45.348h-7.51L194.248 71.94h8.037zm12.845-15.971h-8.827l4.479-17.876 4.348 17.876zm24.893 15.971V45.52l7.51 17.679h5.072l7.444-17.876V71.94h7.641V26.592h-7.51l-10.145 25.632-10.21-25.632h-7.444V71.94h7.641zm49.702 0c9.815 0 13.57-6.178 13.57-13.013 0-5.718-2.24-9.267-6.126-10.713 2.964-1.446 4.941-5.192 4.941-9.858 0-7.821-4.809-11.764-13.57-11.764h-12.384V71.94h13.57zm-1.073-26.815h-4.875V33.164h4.084c5.468 0 6.587 2.103 6.587 5.652 0 3.746-1.581 6.309-5.797 6.309zm.461 20.242h-5.336v-13.67h4.611c5.072 0 7.246 2.037 7.246 6.835 0 4.338-1.976 6.835-6.522 6.835zm28.983 6.572V53.538h5.731l6.719 18.402h8.3l-7.707-19.717c4.084-1.84 6.456-5.849 6.456-12.093 0-9.004-5.336-13.539-13.899-13.539h-13.241V71.94h7.641zm4.805-24.974h-4.875V33.164h4.875c4.611 0 6.983 1.84 6.983 6.967s-2.371 6.835-6.983 6.835zm30.564 24.974V26.592h-7.622V71.94h7.622zm21.82 0c8.366 0 14.295-5.455 14.295-19.98v-5.389c0-14.525-5.929-19.98-14.295-19.98h-13.109V71.94h13.109zm.107-6.572h-5.468V33.164h5.468c5.006 0 6.653 4.075 6.653 13.407v5.389c0 9.333-1.647 13.407-6.653 13.407zm33.705 7.164c8.366 0 13.636-5.718 13.636-20.374v-3.483H409.23v6.638h6.192c-.263 7.295-2.174 10.581-6.324 10.581-4.479 0-6.653-3.943-6.653-13.736v-5.784c0-9.793 2.174-13.736 6.653-13.736 3.755 0 5.665 2.76 6.324 8.018h7.246c-1.12-9.53-5.863-14.656-13.57-14.656-8.432 0-14.295 6.112-14.295 20.703v5.455c0 14.262 5.863 20.374 14.295 20.374zm42.368-.591v-6.572h-15.31V51.763h13.681v-6.572h-13.681V33.229h15.31v-6.638H428.6V71.94h22.867zM172.73 128.273V116.64l4.875-8.544 9.42 20.177h8.498l-12.78-27.209 10.474-18.139h-8.564l-11.923 21.36v-21.36h-7.641v45.348h7.641zm35.37 0V82.925h-7.622v45.348h7.622zm15.781 0v-26.88l13.26 26.88h6.892V82.925h-7.614V110.2l-13.391-27.275h-6.761v45.348h7.614zm50.352 0v-6.572h-15.48v-13.605h13.834v-6.572h-13.834V89.563h15.48v-6.638h-23.122v45.348h23.122zm22.309 0v-38.71h10.103v-6.638h-27.767v6.638h10.103v38.71h7.561zm23.17 0V82.925h-7.622v45.348h7.622zm21.322.591c7.549 0 12.209-4.469 13.522-14.656h-7.221c-.788 5.521-2.56 8.018-6.302 8.018-4.464 0-6.63-4.075-6.63-13.736v-5.784c0-9.793 2.166-13.736 6.63-13.736 3.61 0 5.58 2.497 6.302 8.018h7.221c-1.247-9.858-6.236-14.656-13.522-14.656-8.402 0-14.244 6.112-14.244 20.374v5.784c0 14.262 5.842 20.374 14.244 20.374zm31.637 0c8.832 0 12.919-6.244 12.919-13.013 0-7.821-3.559-11.37-11.337-13.539-4.944-1.38-7.316-3.089-7.316-7.427 0-3.812 1.714-5.915 5.405-5.915 3.625 0 5.537 1.775 7.185 4.863l5.669-4.075c-2.768-5.061-7.119-7.427-13.051-7.427-8.898 0-12.853 5.718-12.853 12.553 0 7.689 3.955 11.699 11.139 13.736 6.064 1.709 7.514 3.943 7.514 7.558 0 3.286-1.318 6.046-5.734 6.046-3.889 0-5.8-1.643-7.976-4.863l-5.866 4.075c3.23 5.061 7.844 7.427 14.303 7.427z" fill="#2a2725" fill-rule="nonzero"/></g><defs /></svg>